PathFileType	4	(X/Y/Z)	C:/Users/opensim2020/Desktop/walking_exp_matlab/subject01_walking15_straight_04.trc	
DataRate	CameraRate	NumFrames	NumMarkers	Units	OrigDataRate	OrigDataStartFrame	OrigNumFrames	
100.00	100.00	4	43	mm	100.00	2081	105	
Frame#	Time	LFHD			RFHD			LBHD			RBHD			C7			T10			CLAV			STRN			RBAK			LSHO			LUPA			LELB			LFRM			LWRA			LWRB			LFIN			RSHO			RUPA			RELB			RFRM			RWRA			RWRB			RFIN			LASI			RASI			LPSI			RPSI			LTHI			LKNE			LTIB			LANK			LHEE			LTOE			RTHI			RKNE			RTIB			RANK			RHEE			RTOE			*39			*40			*41			*42			
		X1	Y1	Z1	X2	Y2	Z2	X3	Y3	Z3	X4	Y4	Z4	X5	Y5	Z5	X6	Y6	Z6	X7	Y7	Z7	X8	Y8	Z8	X9	Y9	Z9	X10	Y10	Z10	X11	Y11	Z11	X12	Y12	Z12	X13	Y13	Z13	X14	Y14	Z14	X15	Y15	Z15	X16	Y16	Z16	X17	Y17	Z17	X18	Y18	Z18	X19	Y19	Z19	X20	Y20	Z20	X21	Y21	Z21	X22	Y22	Z22	X23	Y23	Z23	X24	Y24	Z24	X25	Y25	Z25	X26	Y26	Z26	X27	Y27	Z27	X28	Y28	Z28	X29	Y29	Z29	X30	Y30	Z30	X31	Y31	Z31	X32	Y32	Z32	X33	Y33	Z33	X34	Y34	Z34	X35	Y35	Z35	X36	Y36	Z36	X37	Y37	Z37	X38	Y38	Z38	X39	Y39	Z39	X40	Y40	Z40	X41	Y41	Z41	X42	Y42	Z42	X43	Y43	Z43	

1	0.000	-999.65375	848.51331	1657.62048	-1108.71741	814.38654	1666.22754	-1031.23535	962.57281	1621.36511	-1147.35547	930.19696	1629.64771	-1070.14014	1005.08435	1432.94202	-1083.52917	1066.65466	1143.55664	-1068.74207	865.38379	1356.60205	-1063.90100	835.96332	1197.63953	-1152.77051	1073.92615	1248.85364	-910.76947	927.02972	1398.78748	-822.19135	986.54407	1224.09875	-817.31396	1021.10535	1077.83997	-788.42236	996.43884	966.64630	-798.96844	931.85419	842.04700	-778.02350	988.12897	845.56995	-757.83765	951.33337	773.98926	-1218.32275	924.96466	1398.99695	-1325.59973	1003.69843	1212.19348	-1337.42761	1004.92853	1083.73547	-1367.78796	943.30267	976.80780	-1352.39832	827.04962	897.46826	-1386.83813	869.32666	881.35449	-1397.42651	804.99982	827.75293	-978.51941	902.87201	933.26373	-1196.49536	908.50140	931.01587	-1025.84424	1088.54419	940.47919	-1169.17834	1091.85730	950.36523	-915.87549	828.04144	623.83472	-936.80981	794.12476	493.28049	-942.08575	842.28625	309.13882	-1006.61664	864.22388	92.99445	-1069.29492	899.83405	65.53944	-986.97253	727.25989	56.66788	-1258.62195	1019.66724	607.04456	-1240.54761	1044.58704	448.59213	-1251.60669	1132.24512	295.33133	-1212.32446	1197.41443	96.69936	-1162.40332	1250.82312	65.32054	-1222.73938	1065.91638	40.00238	-1087.02502	827.85120	1699.67249	-3101.80591	1973.07605	1023.44885	-3140.66089	2012.48254	1021.95135			 
2	0.010	-998.67902	835.25995	1656.38306	-1107.65039	800.55267	1665.25610	-1031.02429	949.02545	1620.01880	-1146.97339	916.15460	1628.58240	-1070.41382	991.02728	1431.73462	-1084.33838	1052.71875	1142.30249	-1068.36047	851.31134	1355.27197	-1063.86450	821.98682	1196.27612	-1153.66821	1059.59802	1247.71985	-910.66797	913.90790	1397.14929	-822.70428	975.24738	1222.75806	-817.84711	1011.21265	1077.19763	-787.94360	989.94543	965.86237	-796.76459	928.30115	839.56073	-777.19391	984.85773	844.46899	-756.11163	950.47687	771.94934	-1218.20911	910.27795	1398.11292	-1326.37256	987.69550	1211.39575	-1338.93396	988.23755	1082.97754	-1368.49731	923.25543	977.80756	-1351.87964	804.69775	902.49823	-1386.70984	846.03882	884.88660	-1396.48108	779.76703	833.46191	-979.30939	888.90631	931.82782	-1197.35425	894.86145	929.62781	-1026.24561	1074.80615	939.16772	-1169.19482	1078.22571	949.87396	-915.36298	814.73187	622.58960	-937.80383	780.68097	492.53104	-941.08514	818.93085	306.95023	-1003.34937	824.21216	88.19002	-1065.72632	858.56726	58.22327	-984.69299	684.74646	60.23779	-1259.17627	1010.93262	607.07007	-1241.08130	1038.85156	449.03918	-1251.70068	1129.11511	296.90323	-1212.59778	1196.24622	98.99345	-1162.60461	1249.99841	68.62677	-1222.87097	1065.75452	39.95654	-1085.97021	814.22955	1698.67017	-3101.98389	1973.08569	1023.62988	-3140.58154	2012.51831	1022.12439			 
3	0.020	-997.67896	821.87720	1655.10132	-1106.54810	786.75647	1664.19531	-1030.55884	935.57068	1618.68872	-1146.43408	902.14545	1627.41125	-1070.51221	976.96729	1430.49609	-1084.85486	1038.79407	1141.01599	-1067.89661	837.23596	1353.91589	-1063.79761	807.89886	1194.86145	-1154.26868	1045.19104	1246.44971	-910.41211	900.58807	1395.44604	-822.96045	963.52734	1221.37781	-818.21954	1001.32104	1076.67896	-787.63751	983.16022	965.16577	-794.88293	924.89325	837.14850	-776.24084	981.17401	843.67236	-754.52246	949.21289	770.13757	-1217.80286	895.57959	1397.08545	-1326.98608	971.78198	1210.60291	-1340.16858	971.89349	1082.25073	-1368.95776	903.56702	978.96411	-1351.07397	782.95288	907.39203	-1386.30127	823.34631	888.39655	-1395.43628	755.26227	839.20844	-979.97021	874.45776	930.29700	-1198.02063	881.07733	928.09692	-1026.33313	1060.69336	937.94995	-1169.05249	1064.52478	949.56952	-915.10638	802.29712	620.70551	-938.89856	767.57544	491.38022	-940.25934	795.90979	304.87860	-999.85120	785.47742	84.90125	-1061.77051	818.55151	52.30249	-982.24579	644.11102	65.78764	-1259.77893	1001.87140	607.31439	-1241.55859	1032.40662	449.46716	-1252.08301	1125.12048	298.99634	-1212.98206	1194.92090	101.66200	-1162.73950	1248.96301	72.36100	-1223.06091	1065.53442	40.02218	-1084.83472	800.52423	1697.54883	-3101.93555	1973.26245	1023.43158	-3140.74976	2012.50989	1022.08795			 
4	0.030	-996.59644	808.38037	1653.66577	-1105.19299	772.92603	1663.01855	-1029.86230	921.93903	1617.14612	-1145.55432	888.10870	1626.11316	-1070.34973	962.91266	1428.99597	-1085.03308	1024.95471	1139.79126	-1067.24670	823.13629	1352.44287	-1063.52356	793.75800	1193.39514	-1154.63257	1030.83850	1245.14636	-909.99530	887.09753	1393.70923	-823.00342	951.58423	1219.91626	-818.86591	990.66211	1075.89929	-787.38617	975.78571	964.46057	-793.17737	920.61853	834.89911	-775.35956	976.90289	842.86279	-753.37482	947.15466	768.29327	-1217.38623	880.90802	1396.01257	-1327.22644	956.03595	1209.77368	-1341.02441	955.26208	1081.37878	-1369.12671	884.18048	980.04681	-1350.14429	761.71716	912.21179	-1385.51721	801.27228	891.86572	-1394.26489	731.50348	844.92401	-980.69971	859.81000	928.71222	-1198.60620	867.32166	926.45447	-1026.21216	1046.22339	936.78632	-1168.77991	1050.43567	949.38818	-914.85492	790.65045	618.23682	-939.78876	754.39319	490.06857	-939.13403	773.02136	303.04199	-996.73950	748.70990	82.98270	-1057.91370	780.32666	47.62060	-979.94202	606.22693	72.59461	-1260.49146	992.33850	607.60120	-1242.22900	1025.29016	449.98175	-1252.23340	1120.61731	300.84683	-1213.35278	1193.37817	104.53369	-1162.93982	1247.69946	76.42746	-1223.15100	1065.22754	40.01220	-1083.54651	786.83862	1696.28882	-3101.86426	1973.21692	1023.91083	-3140.69946	2012.60071	1022.14832			 
